name processed_emg_signals
nRows=75
nColumns=7
 
endheader
time	RGLTMED	RRF	RADDLONG	RBF	RTA	RGM
1.578	0.0025887611819308	0.0117284863891338	0.0001942813294709	0.0202998509982303	0.1159259858942237	0.0013354584240295
1.579	0.0021915092370928	0.011057241676247	0.0004046922246376	0.0191622648502896	0.1026966528980959	0.0002473047623377
1.5799999999999998	0.0017957230538935	0.0103846977399448	0.0006155021695755	0.0179700691258764	0.0894553343673386	0.0008451248873496
1.5809999999999997	0.0014016306873216	0.009711122012329	0.0008266014459027	0.0167226137020875	0.0762089443841479	0.001941167760992
1.5819999999999996	0.0010094571231048	0.0090367792311543	0.0010378806748449	0.0154192875224284	0.0629644108633544	0.0030401510901535
1.5829999999999995	0.0006194239244999	0.0083619310956258	0.0012492309889505	0.0140595202088705	0.049728668563206	0.0041413926898796
1.5839999999999994	0.0002317488882811	0.0076868359389472	0.0014605442014914	0.0126427836616962	0.0365086521956499	0.005244201557084
1.5849999999999993	0.0001533542888652	0.0070117484189855	0.0016717129729773	0.0111685936445479	0.0233112896500836	0.0063478784786019
1.5859999999999992	0.0005356763323722	0.0063369192282073	0.0018826309742863	0.0096365113519682	0.0101434953433623	0.0074517166480927
1.586999999999999	0.0009150126991256	0.005662594823836	0.0020931930459639	0.0080461449565949	0.0029878362922586	0.0085550022910166
1.587999999999999	0.0012911638730492	0.0049890171790077	0.002303295353273	0.0063971511330617	0.0160758371727622	0.0096570152969498
1.5889999999999989	0.001663935645968	0.004316423555574	0.0025128355366017	0.0046892365555434	0.0291136717684106	0.0107570298585592
1.5899999999999987	0.0020331393828726	0.0036450462990893	0.0027217128568594	0.0029221593657828	0.0420945431443377	0.0118543151166081
1.5909999999999986	0.0023985922707999	0.0029751126564065	0.0029298283355134	0.0010957306083513	0.055011698829138	0.0129481358103933
1.5919999999999985	0.0027601175506493	0.002306844616128	0.003137084888967	0.0007901843701774	0.0678584365061642	0.0140377529330357
1.5929999999999984	0.0031175447313675	0.0016404587719845	0.0033433874570158	0.0027356645615268	0.0806281095233961	0.0151224243910743
1.5939999999999983	0.003470709786058	0.000976166209016	0.0035486431251628	0.0047407319789189	0.0933141322187415	0.0162014056678665
1.5949999999999982	0.0038194553296889	0.0003141724122639	0.0037527612406071	0.0068053503866583	0.1059099850585553	0.0172739504903735
1.595999999999998	0.004163630778192	0.0003453228024922	0.0039556535217565	0.0089294240796189	0.1184092195881331	0.0183393114990048
1.596999999999998	0.0045030924888412	0.0010021253365546	0.0041572341611488	0.0111127967161947	0.1308054631939507	0.0193967409203065
1.5979999999999979	0.0048377038818972	0.0016560468354073	0.0043574199217185	0.0133552502083118	0.1430924236783461	0.0204454912423631
1.5989999999999978	0.0051673355435791	0.0023069046958981	0.0045561302263766	0.0156565036721161	0.1552638936480906	0.0214848158928618
1.5999999999999976	0.0054918653104902	0.0029545220543659	0.0047532872408995	0.0180162124429445	0.1673137547190383	0.0225139699198494
1.6009999999999975	0.005811178335701	0.0035987277566195	0.0049488159501537	0.0204339671581807	0.1792359815398552	0.0235322106752887
1.6019999999999974	0.0061251671367771	0.0042393563107145	0.0051426442276923	0.0229092929115606	0.1910246456386571	0.0245387985016017
1.6029999999999973	0.0064337316261113	0.0048762478235021	0.0053347028987873	0.0254416484824651	0.2026739190970058	0.0255329974214351
1.6039999999999972	0.0067367791239839	0.0055092479219549	0.0055249257969679	0.0280304256436884	0.2141780780561067	0.0265140758309219
1.604999999999997	0.0070342243548243	0.0061382076603091	0.0057132498141335	0.0306749485511099	0.2255315060603958	0.0274813071966998
1.605999999999997	0.0073259894271998	0.0067629834140633	0.0058996149443066	0.0333744732186241	0.2367286972440879	0.0284339707569306
1.6069999999999969	0.0076120037981081	0.0073834367618805	0.0060839643210853	0.0361281870816065	0.2477642593667336	0.0293713522265458
1.6079999999999968	0.0078922042221895	0.0079994343564224	0.0062662442488465	0.0389352086521102	0.2586329167043477	0.03029274450693
1.6089999999999967	0.0081665346864852	0.008610847785132	0.0064464042277519	0.0417945872689076	0.2693295128032664	0.0311974484002419
1.6099999999999965	0.0084349463313761	0.0092175534219579	0.0066243969726004	0.0447053029454173	0.2798490131044976	0.0320847733285483
1.6109999999999964	0.0086973973583182	0.0098194322709942	0.0068001784255682	0.0476662663184626	0.2901865074467832	0.0329540380578729
1.6119999999999963	0.0089538529250054	0.0104163698029983	0.0069737077628735	0.0506763187007179	0.3003372124567923	0.0338045714271825
1.6129999999999962	0.0092042850285964	0.0110082557857304	0.0071449473954211	0.0537342322395855	0.3102964738347921	0.0346357130822118
1.613999999999996	0.0094486723776747	0.0115949841090628	0.0073138629634994	0.0568387101851184	0.3200597685439605	0.0354468142139335
1.614999999999996	0.0096870002536436	0.0121764526057924	0.0074804233256557	0.0599883872694621	0.3296227069112626	0.0362372383013707
1.6159999999999959	0.0099192603622854	0.0127525628690786	0.0076446005418936	0.0631818302001175	0.3389810346475974	0.0370063618583578
1.6169999999999958	0.0101454506762131	0.0133232200674162	0.0078063698513802	0.0664175382691195	0.3481306347946576	0.0377535751837616
1.6179999999999957	0.0103655752689447	0.013888332758037	0.0079657096448471	0.0696939440800079	0.3570675296055579	0.0384782831145861
1.6189999999999956	0.0105796441413123	0.0144478126996303	0.0081226014318858	0.0730094143942274	0.3657878823657192	0.0391799057813061
1.6199999999999954	0.0107876730409119	0.0150015746652585	0.0082770298033277	0.0763622510983402	0.3742879991598662	0.0398578793646944
1.6209999999999953	0.0109896832752993	0.0155495362563184	0.0084289823889068	0.0797506922931781	0.3825643305904154	0.0405116568533351
1.6219999999999952	0.0111857015196207	0.0160916177183795	0.0085784498104089	0.0831729135057744	0.3906134734520229	0.0411407088009248
1.6229999999999951	0.011375759619361	0.0166277417596746	0.0087254256305341	0.0866270290246385	0.3984321723664886	0.0417445240823707
1.623999999999995	0.011559894388863	0.0171578333729815	0.0088699062977086	0.0901110933586224	0.4060173213815146	0.0423226106476129
1.624999999999995	0.0117381474062556	0.0176818196615727	0.0090118910870968	0.0936231028193202	0.4133659655360518	0.0428744962720104
1.6259999999999948	0.0119105648054011	0.0181996296698558	0.0091513820380694	0.0971609972266116	0.4204753023941816	0.0433997293020464
1.6269999999999947	0.0120771970654591	0.018711194219268	0.0092883838883864	0.1007226617366161	0.4273426835486419	0.0438978793950044
1.6279999999999946	0.0122380987986415	0.019216445749933	0.0094229040053636	0.1043059287909711	0.4339656160942468	0.044368538251155
1.6289999999999945	0.012393328536709	0.0197153181685323	0.0095549523142908	0.1079085801859685	0.4403417640706122	0.0448113203368681
1.6299999999999943	0.0125429485167294	0.0202077467027965	0.0096845412243653	0.1115283492597017	0.4464689498728454	0.0452258635969296
1.6309999999999942	0.0126870244665889	0.0206936677629692	0.0098116855524022	0.1151629231949629	0.4523451556280862	0.04561183015421
1.6319999999999941	0.0128256253907194	0.0211730188105492	0.0099364024445668	0.1188099454352255	0.4579685245350748	0.0459689069946947
1.632999999999994	0.0129588233564968	0.021645738234577	0.0100587112963716	0.1224670182106163	0.4633373621635441	0.0462968066357423
1.633999999999994	0.013086693281775	0.0221117652357015	0.0101786336711741	0.1261317051703511	0.468450137710504	0.0465952677753036
1.6349999999999938	0.01320931272404	0.0225710397182452	0.0102961932174179	0.1298015341176554	0.4733054852113558	0.0468640559196943
1.6359999999999937	0.0133267616716783	0.0230235021904807	0.0104114155848765	0.1334739998427584	0.4779022047048996	0.0471029639874071
1.6369999999999936	0.0134391223378546	0.0234690936733147	0.0105243283401611	0.1371465670491048	0.4822392633522994	0.0473118128863673
1.6379999999999935	0.0135464789574727	0.0239077556175866	0.010634960881759	0.1408166733675296	0.4863157965106972	0.0474904520620108
1.6389999999999934	0.0136489175876636	0.0243394298301752	0.0107433443548425	0.1444817324527292	0.4901311087622841	0.0476387600136043
1.6399999999999932	0.013746525912225	0.024764058409093	0.0108495115660639	0.1481391371559884	0.4936846748992616	0.0477566447763197
1.6409999999999931	0.0138393930504016	0.0251815836877391	0.0109534968985201	0.1517862627677209	0.4969761408643108	0.0478440443666951
1.641999999999993	0.0139276093703795	0.0255919481884653	0.011055336227046	0.1554204703229607	0.5000053246451486	0.0479009271892157
1.642999999999993	0.0140112663078526	0.0259950945856461	0.0111550668339753	0.1590391099624894	0.5027722171206388	0.0479272924018427
1.6439999999999928	0.0140904561900047	0.0263909656784654	0.0112527273254939	0.1626395243418112	0.5052769828549325	0.0479231702384723
1.6449999999999927	0.0141652720652284	0.0267795043736673	0.011348357548689	0.1662190520796818	0.5075199608351595	0.0478886222866366
1.6459999999999926	0.0142358075388776	0.0271606536784898	0.0114419985093931	0.1697750312373655	0.5095016651472726	0.0478237417193566
1.6469999999999925	0.0143021566153167	0.027534356703972	0.0115336922909047	0.1733048028192145	0.511222785583637	0.0477286534808801
1.6479999999999924	0.0143644135464884	0.0279005566787551	0.0116234819736771	0.1768057142845703	0.5126841881748291	0.0476035144268481
1.6489999999999922	0.0144226726871803	0.0282591969734538	0.0117114115560577	0.1802751230603715	0.5138869156368547	0.0474485134200468
1.6499999999999921	0.0144770283571216	0.0286102211356244	0.0117975258761626	0.1837104000432774	0.5148321877237881	0.0472638713832332
1.650999999999992	0.0145275747099992	0.0289535729353109	0.0118818705349753	0.1871089330795685	0.5155214014747836	0.0470498413107059
1.651999999999992	0.0145744056094411	0.0292891964211033	0.0119644918207499	0.1904681304105888	0.5159561313435177	0.0468067082403632
